<svg width="21" height="21" fill="none" xmlns="http://www.w3.org/2000/svg"><g clip-path="url(#clip0_431_1199)"><path fill-rule="evenodd" clip-rule="evenodd" d="M0 9.333c0-4.4 0-6.6 1.367-7.966C2.733 0 4.934 0 9.333 0h2.334c4.4 0 6.6 0 7.966 1.367C21 2.733 21 4.934 21 9.333v2.334c0 4.4 0 6.6-1.367 7.966C18.267 21 16.066 21 11.667 21H9.333c-4.4 0-6.6 0-7.966-1.367C0 18.267 0 16.066 0 11.667V9.333zM17.5 5.25a1.75 1.75 0 11-3.5 0 1.75 1.75 0 013.5 0zm-4.667 6.417a2.333 2.333 0 11-4.666 0 2.333 2.333 0 014.666 0zm2.334 0a4.667 4.667 0 11-9.334 0 4.667 4.667 0 019.334 0z" fill="#fff"/></g><defs><clipPath id="clip0_431_1199"><path fill="#fff" d="M0 0h21v21H0z"/></clipPath></defs></svg>