<svg width="172" height="116" fill="none" xmlns="http://www.w3.org/2000/svg"><g clip-path="url(#clip0_431_1078)"><path d="M30.47 101.198c.004.304-.107.597-.31.822a.934.934 0 01-.758.361c-.479 0-.728-.251-.728-.772a1.58 1.58 0 01.16-.491c.08-.143.134-.299.16-.461 0-.351-.31-.521-.998-.521a4.567 4.567 0 00-2.655 1.563c-.389.371-1.117 1.153-2.165 2.336a14.97 14.97 0 01-5.867 4.279c.528.39.978.876 1.327 1.433.315.577.47 1.227.449 1.885v2.004c0 1.353.509 2.004 1.537 2.004a3.983 3.983 0 002.993-1.232 4.113 4.113 0 001.207-3.007 2.846 2.846 0 00-.379-1.493 1.342 1.342 0 00-1.217-.762 3.649 3.649 0 00-2.245 1.323c-.1 0-.15-.06-.15-.13 0-.341.37-.732 1.098-1.163a3.566 3.566 0 011.626-.601 2.197 2.197 0 011.706.711 2.55 2.55 0 01.649 1.794 4.408 4.408 0 01-.486 1.963 4.381 4.381 0 01-1.31 1.535 5.693 5.693 0 01-3.752 1.403 2.625 2.625 0 01-2.125-.902 3.266 3.266 0 01-.729-2.225v-2.295a2.637 2.637 0 00-.638-2.004 8.897 8.897 0 01-2.265.651 15.808 15.808 0 01-3.912 4.701 9.04 9.04 0 01-5.618 2.054 5.12 5.12 0 01-3.662-1.293 4.668 4.668 0 01-1.407-3.598 4.025 4.025 0 01.27-1.543 1.213 1.213 0 011.127-.882c.52 0 .779.25.779.742a.922.922 0 01-.49.902l-.857.25c-.36.15-.53.351-.53.601 0 .692.53 1.514 1.597 2.476a6.366 6.366 0 004.4 1.553 6.657 6.657 0 004.55-1.804 15.173 15.173 0 002.994-4.009c-1.726 0-2.584-.41-2.584-1.242 0-.832.589-1.173 1.866-1.173a6.557 6.557 0 011.816.241 98.124 98.124 0 011.576-2.566 18.313 18.313 0 011.837-2.375 6.644 6.644 0 01-3.513 1.232 1.51 1.51 0 01-1.347-.721c-.21-.443-.393-.899-.549-1.363-.17-.481-.379-.722-.638-.722-.46 0-.998.421-1.747 1.263-.508.598-.95 1.25-1.317 1.944-.06.121-.24.602-.559 1.443-.1.388-.269.755-.498 1.083-.1 0-.14 0-.14-.11a5.261 5.261 0 01.559-1.834 12.417 12.417 0 011.796-2.867 3.83 3.83 0 012.704-1.663 1.379 1.379 0 011.167.781c.22.431.43.872.639 1.313.33.611.649.912.938.912a4.737 4.737 0 001.926-.651 11.01 11.01 0 001.766-1.103l.998-.852a2.205 2.205 0 011.137-.601.31.31 0 01.34.341c0 .26-.333.541-.998.842l-1.268.541-.279.22c-.84.738-1.564 1.6-2.145 2.556-.39.591-.998 1.664-1.846 3.227.339.141.848.381 1.526.712a12.296 12.296 0 003.662-2.907c2.086-2.175 3.263-3.387 3.553-3.638a6.266 6.266 0 013.991-1.784 3.23 3.23 0 011.437.301 1.188 1.188 0 01.788 1.112l.03-.05zm-15.736 6.364a4.418 4.418 0 00-.998-.13 2.36 2.36 0 00-.878.171c-.369.16-.548.37-.548.621 0 .531.469.792 1.407.792h.309l.708-1.454zm1.906.822a3.095 3.095 0 00-1.277-.631l-.609 1.132a7.192 7.192 0 001.916-.551l-.03.05zm18.987 4.328c0 .141-.35.572-.998 1.283-1.287 1.313-2.235 2.005-2.834 2.005-.598 0-.928-.381-.928-1.133.015-.293.052-.584.11-.872-.998 1.333-1.995 2.005-2.844 2.005-.848 0-1.317-.802-1.317-2.356a4.5 4.5 0 01.14-1.052c-.18.301-.34.441-.46.441-.119 0-.129 0-.129-.08s.35-.571 1.058-1.283c1.477-1.483 2.837-2.225 4.081-2.225.788 0 1.187.351 1.187 1.052a1.75 1.75 0 01-.09.502l.929-1.374 1.496-.08-2.484 3.929a4.553 4.553 0 00-.848 1.774c0 .2.12.311.349.311.23 0 .998-.421 1.806-1.263l1.676-1.674c.08 0 .13 0 .13.09h-.03zm-3.293-2.215c0-.471-.25-.711-.748-.711-.838 0-1.696.641-2.584 1.924a5.846 5.846 0 00-1.238 3.147c0 .471.18.702.539.702.539 0 1.247-.481 2.105-1.434 1.248-1.413 1.896-2.625 1.896-3.628h.03z" fill="#3C91AB"/><path d="M43.66 107.33l-.179.321h-2.614l-3.383 5.432a6.404 6.404 0 00-1.058 2.145c0 .28.13.431.38.431.509 0 1.397-.662 2.654-2.005.19-.21.539-.561.998-1.052.09 0 .14 0 .14.12a4.748 4.748 0 01-1.008 1.233c-1.278 1.313-2.196 2.004-2.754 2.004-.819 0-1.228-.481-1.228-1.433a4.167 4.167 0 01.729-1.884l1.107-1.774a16.923 16.923 0 01-2.085 2.135c-.06 0-.09-.02-.09-.06.412-.64.894-1.232 1.437-1.764 1.058-1.193 1.646-1.875 1.776-2.055l.998-1.483h-1.108l.18-.321h1.108l1.387-2.205 1.476-.11-1.457 2.315 2.595.01z" fill="#3C91AB"/><path d="M46.992 112.742c0 .131-.379.582-1.147 1.363-1.218 1.243-2.285 1.865-3.193 1.865a1.651 1.651 0 01-1.457-.792 2.907 2.907 0 01-.46-1.664 3.82 3.82 0 01.13-.952c-.239.301-.399.451-.498.451-.1 0-.11 0-.11-.09a4.31 4.31 0 01.888-1.113c1.437-1.583 2.814-2.365 4.13-2.365.83 0 1.248.351 1.248 1.052 0 .702-.579 1.454-1.746 2.125-.882.479-1.825.833-2.804 1.052a6.24 6.24 0 00-.11.902c0 .712.3 1.063.898 1.063a3.085 3.085 0 001.806-.782 12.824 12.824 0 001.517-1.453c.227-.291.489-.554.778-.782.09 0 .13 0 .13.12zm-1.217-2.565c0-.311-.14-.461-.4-.461a2.817 2.817 0 00-1.995 1.353 8.579 8.579 0 00-1.267 2.245 6.444 6.444 0 002.345-1.083 2.676 2.676 0 001.317-2.054z" fill="#3C91AB"/><path d="M54.645 109.827c0 .18-.229.451-.678.802-.649.531-1.068.882-1.237 1.002a2.086 2.086 0 00-.669 1.403c0 .401.18.611.559.611a2.66 2.66 0 001.726-1.092c.09 0 .13 0 .13.11 0 .271-.23.551-.709.862a2.21 2.21 0 01-1.087.421c-.639 0-.998-.301-.998-.892.042-.373.14-.738.29-1.082a25.13 25.13 0 00-3.343 3.678l-1.587.16 2.994-4.55a3.43 3.43 0 00.628-1.223c0-.2-.1-.3-.31-.3-.388 0-1.107.541-2.164 1.623-1.058 1.083-1.577 1.624-1.547 1.624.03 0-.11 0-.11-.08a6.57 6.57 0 011.237-1.544c1.208-1.323 2.096-2.004 2.675-2.004.578 0 .878.33.878 1.002a6.29 6.29 0 01-1.078 2.816 26.206 26.206 0 011.996-1.804c.153-.466.364-.91.628-1.323a1.473 1.473 0 011.228-.671c.339 0 .519.14.519.411" fill="#3C91AB"/><path d="M59.437 112.742c0 .121-.34.541-.998 1.253-1.277 1.313-2.195 2.005-2.764 2.005-.818 0-1.217-.482-1.217-1.434a4.172 4.172 0 01.728-1.884l1.098-1.774a16.48 16.48 0 01-2.075 2.135c-.06 0-.09-.02-.09-.06 0-.221.998-1.313 2.873-3.298l1.627-.11-2.245 3.538a6.957 6.957 0 00-1.108 2.145c0 .28.13.431.39.431.468 0 1.207-.511 2.215-1.514 1.007-1.002 1.506-1.523 1.476-1.523-.03 0 .13 0 .13.12l-.04-.03zm1.168-7.106a1.084 1.084 0 01-.27.692.788.788 0 01-.618.331.577.577 0 01-.627-.396.585.585 0 01-.022-.266c.003-.26.103-.51.28-.701a.85.85 0 01.649-.321c.368-.04.568.19.568.631l.04.03z" fill="#3C91AB"/><path d="M69.475 112.742c0 .221-.52.802-1.547 1.764-1.028.963-1.766 1.454-2.105 1.454-.729 0-1.088-.542-1.088-1.614a5.167 5.167 0 011.217-2.496c.46-.562.87-1.162 1.228-1.794a.23.23 0 00-.26-.26c-.771 0-2.704 1.971-5.797 5.913l-1.587.16 2.944-4.429c.323-.405.567-.868.718-1.363 0-.191-.1-.281-.309-.281-.4 0-1.128.541-2.175 1.613-1.048 1.073-1.567 1.614-1.537 1.614.03 0-.11 0-.11-.08s.17-.371.52-.762c1.662-1.837 2.793-2.753 3.392-2.746.589 0 .878.351.878 1.052a5.027 5.027 0 01-.898 2.456c2.055-2.345 3.432-3.508 4.12-3.508.69 0 .85.361.85 1.093a5.791 5.791 0 01-1.198 2.555 7.712 7.712 0 00-1.228 2.145c0 .271.12.411.37.411.249 0 1.526-1.002 3.482-3.007.09 0 .14 0 .14.12" fill="#3C91AB"/><path d="M78.355 112.712c0 .141-.34.572-.998 1.283-1.287 1.313-2.225 2.005-2.824 2.005-.599 0-.928-.381-.928-1.133.007-.307.044-.612.11-.912-.998 1.333-1.996 2.005-2.854 2.005-.858 0-1.307-.772-1.307-2.326a3.99 3.99 0 01.15-1.052c-.19.301-.34.441-.47.441-.129 0-.129 0-.129-.08s.35-.571 1.058-1.283c1.477-1.483 2.837-2.225 4.08-2.225.8 0 1.198.351 1.198 1.052-.006.171-.036.34-.09.502l.928-1.374 1.427-.07-2.484 3.929a4.627 4.627 0 00-.838 1.774c0 .2.11.311.339.311.23 0 .998-.421 1.816-1.263l1.666-1.674c.09 0 .13 0 .13.09h.02zm-3.343-2.215a.641.641 0 00-.738-.711c-.838 0-1.707.641-2.585 1.924a5.767 5.767 0 00-1.237 3.147c0 .471.18.702.539.702.539 0 1.237-.481 2.095-1.433 1.308-1.414 1.946-2.626 1.946-3.629h-.02zm37.378-10.543c0 .167-1.663 3.094-4.99 8.78h.24a3.031 3.031 0 012.135.751 2.664 2.664 0 01.799 2.095 4.416 4.416 0 01-1.148 2.947 3.57 3.57 0 01-2.774 1.393 2.098 2.098 0 01-1.756-.772 3.022 3.022 0 01-.559-1.894 9.516 9.516 0 011.058-3.839 5.516 5.516 0 00-1.806 1.093c-.639 1.814-1.228 2.716-1.766 2.716-.33 0-.499-.191-.499-.562 0-.591.678-1.443 1.995-2.545.154-.338.239-.702.25-1.073a2.36 2.36 0 00-.3-1.122c-1.995 2.165-3.262 3.417-3.632 3.768a18.032 18.032 0 01-4.07 3.007 10.945 10.945 0 01-4.95 1.263 6.45 6.45 0 01-4.29-1.373 5.02 5.02 0 01-1.797-4.009 5.608 5.608 0 011.896-4.35 6.484 6.484 0 014.49-1.664 5.8 5.8 0 013.423 1.093 3.545 3.545 0 011.716 3.006c0 .632-.25.953-.768.953-.519 0-.739-.321-.739-.953.009-.213.042-.425.1-.631.052-.207.086-.418.1-.631.005-.383-.1-.76-.302-1.085a1.993 1.993 0 00-.835-.749 4.325 4.325 0 00-2.146-.512 5.44 5.44 0 00-4.1 1.794 5.894 5.894 0 00-1.647 4.19 4.175 4.175 0 001.486 3.407 5.351 5.351 0 003.603 1.143 11.403 11.403 0 006.865-2.676 43.655 43.655 0 005.428-5.292 2.001 2.001 0 00-1.527-.842 2.105 2.105 0 00-1.776 1.263c-.13.221-.21.321-.26.321a.096.096 0 01-.081-.029.104.104 0 01-.023-.037.104.104 0 01-.005-.044 1.73 1.73 0 01.848-1.454 2.794 2.794 0 011.646-.541 2.101 2.101 0 011.707.822l3.253-3.398c2.684-2.786 4.36-4.189 4.989-4.189a.418.418 0 01.469.461h.05zm-.719.211c0-.161 0-.231-.11-.231-.399 0-1.875 1.313-4.42 4.009l-3.353 3.478c.191.396.287.832.28 1.273a2.91 2.91 0 01-.379 1.353 5.493 5.493 0 011.935-1.003c.25-.411.938-1.413 2.056-3.006l3.991-5.873zm-2.205 11.585c0-1.693-.768-2.555-2.315-2.585a12.1 12.1 0 00-1.596 4.951c0 .952.389 1.433 1.177 1.433a2.368 2.368 0 002.055-1.313c.468-.745.72-1.605.729-2.486h-.05zm8.663.974c0 .14-.38.591-1.148 1.373-1.237 1.243-2.305 1.864-3.213 1.864a1.65 1.65 0 01-1.457-.791 2.943 2.943 0 01-.449-1.664c.009-.311.049-.62.12-.922-.2.28-.369.421-.479.421-.11 0-.14 0-.14-.09.246-.418.552-.796.908-1.123 1.477-1.573 2.834-2.355 4.091-2.355.998 0 1.467.391 1.467 1.182.006.251-.067.496-.209.702a.702.702 0 01-.619.341c-.459 0-.688-.191-.688-.592 0-.12.119-.29.359-.521.239-.23.349-.351.349-.411 0-.25-.16-.381-.469-.381-.848 0-1.666.602-2.465 1.794a5.546 5.546 0 00-1.117 3.007c0 .722.309 1.083.928 1.083.718 0 1.646-.562 2.784-1.694.429-.421.868-.872 1.317-1.343.09 0 .13 0 .13.11" fill="#3C91AB"/><path d="M124.487 112.724c0 .14-.389.591-1.147 1.373-1.237 1.243-2.305 1.864-3.223 1.864a1.625 1.625 0 01-1.447-.791 2.943 2.943 0 01-.449-1.664c.009-.311.049-.62.12-.922-.21.28-.369.421-.489.421s-.13 0-.13-.09c.241-.421.548-.8.908-1.123 1.47-1.577 2.834-2.362 4.091-2.355.998 0 1.467.391 1.467 1.182.006.251-.067.496-.209.702a.715.715 0 01-.619.341c-.459 0-.689-.191-.689-.592 0-.12.12-.29.36-.521.239-.23.349-.35.349-.411 0-.25-.16-.38-.479-.38-.838 0-1.657.601-2.465 1.794a5.607 5.607 0 00-1.107 3.006c0 .722.309 1.083.928 1.083.718 0 1.646-.562 2.784-1.694.429-.421.868-.872 1.307-1.343.09 0 .139 0 .139.11" fill="#3C91AB"/><path d="M130.833 112.724c0 .14-.379.591-1.148 1.373-1.217 1.243-2.285 1.864-3.193 1.864a1.66 1.66 0 01-1.456-.791 2.907 2.907 0 01-.459-1.664c.001-.322.045-.642.129-.952-.239.3-.399.451-.499.451-.099 0-.109 0-.109-.09.233-.42.533-.8.888-1.123 1.437-1.577 2.814-2.362 4.131-2.355.828 0 1.247.351 1.247 1.002s-.579 1.483-1.746 2.125a10.84 10.84 0 01-2.804 1.052 6.088 6.088 0 00-.11.902c0 .702.3 1.063.898 1.063a3.09 3.09 0 001.806-.782 13.793 13.793 0 001.517-1.453c.227-.292.488-.554.778-.782.09 0 .13 0 .13.11v.05zm-1.217-2.606c0-.31-.14-.461-.399-.461a2.83 2.83 0 00-1.996 1.353 8.577 8.577 0 00-1.267 2.245 6.434 6.434 0 002.345-1.082 2.69 2.69 0 001.317-2.005v-.05z" fill="#3C91AB"/><path d="M135.77 112.724c0 .12-.289.481-.878 1.102-1.33 1.423-2.478 2.135-3.442 2.135-.998 0-1.527-.391-1.527-1.183a.724.724 0 01.2-.511.677.677 0 01.488-.22c.32 0 .479.15.479.431-.02.15-.067.296-.139.431a1.182 1.182 0 00-.14.44c0 .161.12.241.349.241.699 0 1.277-.631 1.746-1.904.343-.91.526-1.874.539-2.847v-.851l-1.516 1.673c-.425.495-.892.951-1.397 1.363-.08 0-.11 0-.11-.08a27.328 27.328 0 012.953-3.367c.27-.642.579-.952.928-.952.35 0 .459.14.459.43 0 .291-.179.371-.518.572a.877.877 0 00-.519.812c.022.457.093.91.209 1.353.117.439.188.889.21 1.343a3.274 3.274 0 01-.29 1.343 24.425 24.425 0 011.787-1.895c.089 0 .129 0 .129.111" fill="#3C91AB"/><path d="M140.699 112.724c0 .12-.289.481-.878 1.102-1.33 1.423-2.478 2.135-3.443 2.135-.997 0-1.536-.391-1.536-1.183 0-.191.076-.375.209-.511a.665.665 0 01.489-.22c.32 0 .479.15.479.431-.02.15-.068.296-.139.431a1.182 1.182 0 00-.14.44c0 .161.12.241.349.241.699 0 1.277-.631 1.736-1.904a8.183 8.183 0 00.549-2.847v-.851l-1.527 1.673c-.404.491-.848.947-1.327 1.363-.08 0-.109 0-.109-.08a27.374 27.374 0 012.893-3.367c.27-.642.579-.952.928-.952.349 0 .459.14.459.43 0 .291-.179.371-.529.572a.896.896 0 00-.518.812c.022.457.093.91.209 1.353.124.437.198.888.22 1.343a3.29 3.29 0 01-.29 1.343 24.492 24.492 0 011.786-1.845c.09 0 .13 0 .13.111" fill="#3C91AB"/><path d="M148.342 112.583c0 .06-.099.2-.279.41a3 3 0 01-2.305 1.173c-.169.01-.339.01-.509 0-1.127 1.223-2.125 1.834-2.993 1.834-.868 0-1.507-.792-1.507-2.365.018-.34.075-.676.17-1.002-.23.3-.4.451-.489.451-.09 0-.11 0-.11-.091a5.26 5.26 0 01.928-1.162c1.437-1.574 2.754-2.365 3.991-2.365.998 0 1.557.551 1.557 1.643a4.902 4.902 0 01-1.297 2.676c.309 0 .439.06.369.06a2.397 2.397 0 001.596-.701c.272-.213.525-.447.759-.702.06 0 .089 0 .089.131l.03.01zm-2.215-1.664c0-.762-.279-1.143-.858-1.143-.768 0-1.577.642-2.405 1.935a5.93 5.93 0 00-1.167 3.066c0 .542.239.812.698.812a3.397 3.397 0 002.136-1.353 5.02 5.02 0 001.626-3.317h-.03z" fill="#3C91AB"/><path d="M155.857 109.817c0 .18-.229.451-.678.801-.659.522-1.068.882-1.237 1.053a2.085 2.085 0 00-.669 1.403c0 .401.18.611.559.611a2.657 2.657 0 001.726-1.092c.09 0 .13.05.13.11 0 .271-.24.551-.709.862a2.207 2.207 0 01-1.087.421c-.639 0-.998-.301-.998-.892.042-.377.139-.745.289-1.092a25.815 25.815 0 00-3.342 3.688l-1.587.16 2.993-4.55c.29-.361.504-.777.629-1.223a.27.27 0 00-.309-.3c-.389 0-1.108.541-2.165 1.623-1.058 1.083-1.577 1.624-1.547 1.624.03 0-.11 0-.11-.08a6.595 6.595 0 011.237-1.544c1.208-1.333 2.096-2.004 2.675-2.004.578 0 .878.33.878 1.002a6.288 6.288 0 01-1.078 2.816 26.443 26.443 0 011.996-1.804c.153-.466.364-.91.628-1.323a1.462 1.462 0 011.228-.671c.339 0 .519.14.519.411" fill="#3C91AB"/><path d="M160.645 112.723c0 .13-.339.551-.998 1.263-1.277 1.313-2.205 2.004-2.764 2.004-.818 0-1.227-.481-1.227-1.433a4.21 4.21 0 01.738-1.884l1.098-1.784a16.314 16.314 0 01-2.076 2.145c-.059 0-.089-.02-.089-.06 0-.221.997-1.313 2.873-3.298l1.617-.11-2.235 3.538a6.958 6.958 0 00-1.108 2.145c0 .28.13.431.389.431.469 0 1.208-.511 2.215-1.514 1.008-1.002 1.507-1.523 1.477-1.523-.03 0 .13 0 .13.11l-.04-.03zm1.168-7.106a1.086 1.086 0 01-.27.702.785.785 0 01-.619.331.587.587 0 01-.488-.169.584.584 0 01-.16-.493c.003-.26.103-.51.279-.701a.84.84 0 01.649-.321c.369-.03.569.19.569.601l.04.05z" fill="#3C91AB"/><path d="M167.014 112.724c0 .14-.379.591-1.147 1.373-1.228 1.243-2.285 1.864-3.193 1.864a1.658 1.658 0 01-1.457-.791 2.911 2.911 0 01-.469-1.664c.005-.322.052-.642.139-.952-.239.3-.409.451-.498.451-.09 0-.11 0-.11-.09.232-.419.528-.798.878-1.123 1.45-1.577 2.827-2.362 4.131-2.355.838 0 1.257.334 1.257 1.002 0 .772-.589 1.483-1.746 2.125a10.98 10.98 0 01-2.814 1.052c-.053.298-.09.6-.11.902 0 .702.3 1.063.908 1.063a3.104 3.104 0 001.806-.782 13.61 13.61 0 001.507-1.453c.229-.293.494-.556.788-.782.09 0 .13 0 .13.11v.05zm-1.227-2.606c0-.31-.13-.461-.399-.461a2.832 2.832 0 00-1.996 1.353 8.638 8.638 0 00-1.277 2.245 6.293 6.293 0 002.345-1.082 2.663 2.663 0 001.327-2.005v-.05z" fill="#3C91AB"/><path d="M171.95 112.723c0 .12-.289.481-.878 1.103-1.33 1.423-2.478 2.134-3.443 2.134-.997 0-1.536-.39-1.536-1.182 0-.192.076-.375.209-.511a.655.655 0 01.489-.221c.32 0 .479.15.479.431-.02.151-.068.297-.139.431a1.18 1.18 0 00-.14.441c0 .16.11.241.339.241.699 0 1.287-.632 1.746-1.905a8.413 8.413 0 00.549-2.846c0-.09 0-.381-.05-.852l-1.526 1.674c-.4.495-.844.951-1.328 1.363-.069 0-.109 0-.109-.08a28.08 28.08 0 012.993-3.388c.26-.641.569-.952.928-.952.359 0 .449.14.449.431s-.169.371-.519.571a.9.9 0 00-.519.812c.023.457.093.911.21 1.353.117.439.187.889.209 1.343.003.463-.092.92-.279 1.343a24.478 24.478 0 011.786-1.844c.09 0 .13 0 .13.11" fill="#3C91AB"/><path d="M125.705 65.285c6.834-22.327-5.646-45.991-27.874-52.856C75.6 5.565 52.04 18.1 45.206 40.427c-6.834 22.327 5.646 45.991 27.875 52.855 22.228 6.865 45.789-5.67 52.623-27.997z" stroke="#F5F7FB" stroke-width="2" stroke-miterlimit="22.93"/><path d="M117.08 42.95c0 .343-3.288 6.15-9.864 17.42h.484a6.037 6.037 0 014.233 1.494 5.341 5.341 0 011.623 4.098 8.698 8.698 0 01-2.287 5.836 7.086 7.086 0 01-2.432 2.019 7.05 7.05 0 01-3.064.755 4.155 4.155 0 01-3.489-1.54 5.858 5.858 0 01-1.094-3.746 18.973 18.973 0 012.081-7.611 11.002 11.002 0 00-3.587 2.216c-1.255 3.602-2.43 5.404-3.506 5.404-.655 0-.986-.37-.986-1.117 0-1.201 1.345-2.885 4.035-5.053a5.587 5.587 0 00.502-2.116 4.572 4.572 0 00-.61-2.225c-4.053 4.281-6.444 6.773-7.173 7.475a35.582 35.582 0 01-8.07 5.99 21.444 21.444 0 01-9.999 2.467 12.83 12.83 0 01-8.482-2.774 9.903 9.903 0 01-2.733-3.598 9.945 9.945 0 01-.854-4.444 11.093 11.093 0 01.914-4.735 11.049 11.049 0 012.834-3.893 12.86 12.86 0 018.922-3.234 11.621 11.621 0 016.77 2.153c2.29 1.603 3.431 3.578 3.425 5.926 0 1.26-.51 1.891-1.533 1.891-.986 0-1.47-.63-1.47-1.891.02-.42.085-.837.197-1.243a5.69 5.69 0 00.197-1.243 3.84 3.84 0 00-.593-2.08 3.815 3.815 0 00-1.622-1.423 8.587 8.587 0 00-4.25-1.018 10.765 10.765 0 00-4.446.898 10.806 10.806 0 00-3.687 2.65 11.736 11.736 0 00-3.273 8.322 8.282 8.282 0 00.676 3.731 8.247 8.247 0 002.265 3.033 10.728 10.728 0 007.12 2.243c4.43 0 8.97-1.768 13.62-5.305a88.615 88.615 0 0010.76-10.502 3.89 3.89 0 00-3.02-1.675c-1.373 0-2.556.838-3.534 2.513-.25.423-.412.64-.502.64a.205.205 0 01-.213-.136.209.209 0 01-.011-.09 3.497 3.497 0 011.668-2.89 5.508 5.508 0 013.273-1.081 4.163 4.163 0 013.38 1.63l6.456-6.737c5.332-5.53 8.662-8.298 9.989-8.304.628 0 .897.306.897.9h.063zm-1.399.424c0-.306-.054-.468-.215-.468-.789 0-3.713 2.62-8.77 7.862l-6.582 6.908c.374.79.561 1.656.547 2.531a5.783 5.783 0 01-.744 2.702 10.74 10.74 0 013.838-2.072c.493-.801 1.856-2.81 4.08-6.007l7.846-11.456zm-4.358 22.984c0-3.359-1.542-5.07-4.609-5.124-2.098 4.203-3.15 7.475-3.156 9.817 0 1.891.78 2.837 2.322 2.837a4.658 4.658 0 002.4-.727 4.681 4.681 0 001.68-1.867 9.36 9.36 0 001.426-4.936h-.063z" fill="#3C91AB"/><path d="M112.366 33.98a2.445 2.445 0 01-.601 1.64 1.904 1.904 0 01-1.498.72c-.968 0-1.452-.513-1.452-1.54.045-.342.154-.672.323-.973.153-.28.259-.585.313-.9 0-.685-.627-1.036-1.883-1.036-1.255 0-3.084 1.036-5.263 3.107-.807.709-2.239 2.264-4.295 4.665a29.865 29.865 0 01-11.657 8.475 10.87 10.87 0 012.627 2.846 7.46 7.46 0 01.897 3.738c0 .441 0 1.099-.09 1.963-.09.865-.09 1.523-.09 1.964 0 2.702 1.023 4.026 3.05 4.026a7.898 7.898 0 005.873-2.441 8.191 8.191 0 002.394-5.953 5.769 5.769 0 00-.745-2.945 2.681 2.681 0 00-2.439-1.522c-1.192 0-2.69.9-4.483 2.62-.188 0-.287-.108-.287-.243 0-.684.726-1.459 2.17-2.305a7.046 7.046 0 013.264-1.216 4.359 4.359 0 013.398 1.405 5.1 5.1 0 011.274 3.602 8.775 8.775 0 01-.976 3.903 8.722 8.722 0 01-2.611 3.05 11.366 11.366 0 01-7.451 2.702 5.209 5.209 0 01-4.206-1.801 6.513 6.513 0 01-1.453-4.422c0-.514 0-1.28.099-2.279.099-1 .099-1.801.099-2.278 0-1.91-.422-3.252-1.265-4.008a17.579 17.579 0 01-4.483 1.297 31.066 31.066 0 01-7.756 9.312 17.824 17.824 0 01-11.182 4.071 10.168 10.168 0 01-7.254-2.549 9.235 9.235 0 01-2.176-3.26 9.268 9.268 0 01-.63-3.873 7.776 7.776 0 01.546-3.062c.132-.5.42-.945.822-1.27a2.4 2.4 0 011.41-.531c1.023 0 1.543.495 1.543 1.477a1.808 1.808 0 01-.968 1.801l-1.704.54c-.7.3-1.05.697-1.05 1.19 0 1.368 1.059 3.008 3.175 4.917a12.61 12.61 0 008.725 3.08 13.14 13.14 0 009.038-3.602 30.066 30.066 0 005.874-8.043c-3.425.024-5.138-.784-5.138-2.423 0-1.483 1.255-2.224 3.766-2.224 1.21-.01 2.417.145 3.587.459 1.626-2.702 2.672-4.398 3.138-5.089a36.832 36.832 0 013.659-4.701 13.242 13.242 0 01-6.977 2.431 2.966 2.966 0 01-2.69-1.431 24.133 24.133 0 01-1.076-2.702c-.34-.955-.762-1.432-1.273-1.432-.903 0-2.056.837-3.461 2.512a21.251 21.251 0 00-2.61 3.864c-.116.234-.493 1.18-1.12 2.846a6.895 6.895 0 01-.987 2.162c-.188 0-.287-.072-.287-.225.148-1.26.528-2.483 1.121-3.603a25.023 25.023 0 013.587-5.701c1.9-2.258 3.694-3.39 5.38-3.395a2.755 2.755 0 012.331 1.54c.422.9.834 1.747 1.247 2.62.672 1.207 1.29 1.802 1.865 1.802a9.387 9.387 0 003.81-1.288 23.3 23.3 0 003.48-2.18l2.044-1.702a4.415 4.415 0 012.26-1.189.597.597 0 01.648.41.606.606 0 01.024.275c0 .513-.636 1.062-1.9 1.648-.162.08-.996.432-2.502 1.08a5.471 5.471 0 00-.574.442 22.626 22.626 0 00-4.25 5.062c-.772 1.2-1.991 3.338-3.659 6.412.681.28 1.695.748 3.022 1.405 2.026-.864 4.45-2.78 7.272-5.746 4.143-4.335 6.489-6.737 7.039-7.205 2.762-2.36 5.38-3.54 7.855-3.54a6.51 6.51 0 012.851.595 2.376 2.376 0 011.552 2.197v-.045zM81.215 46.508a9.38 9.38 0 00-2.018-.26 4.466 4.466 0 00-1.793.35c-.717.306-1.076.72-1.076 1.234 0 1.045.897 1.567 2.78 1.567h.618l1.489-2.89zm3.739 1.63a6.491 6.491 0 00-2.502-1.27l-1.201 2.252a13.685 13.685 0 003.703-.982z" fill="#3C91AB"/></g><defs><clipPath id="clip0_431_1078"><path fill="#fff" d="M0 0h172v116H0z"/></clipPath></defs></svg>