<svg width="30" height="30" fill="none" xmlns="http://www.w3.org/2000/svg"><path d="M15 15a6.25 6.25 0 100-12.5A6.25 6.25 0 0015 15z" stroke="#62C1DF" stroke-width="2" stroke-linecap="round" stroke-linejoin="round"/><path d="M24.012 19.675L19.587 24.1a1.54 1.54 0 00-.375.737l-.237 1.688c-.088.613.337 1.038.95.95l1.687-.238c.238-.037.575-.2.738-.374l4.425-4.425c.762-.763 1.125-1.65 0-2.775-1.113-1.113-2-.75-2.763.012zm-.637.638a3.982 3.982 0 002.775 2.774" stroke="#62C1DF" stroke-width="2" stroke-miterlimit="10" stroke-linecap="round" stroke-linejoin="round"/><path d="M4.263 27.5c0-4.837 4.813-8.75 10.738-8.75 1.3 0 2.55.188 3.712.538" stroke="#62C1DF" stroke-width="2" stroke-linecap="round" stroke-linejoin="round"/></svg>