<svg width="30" height="30" fill="none" xmlns="http://www.w3.org/2000/svg"><path d="M27.5 21.5a5.809 5.809 0 01-.875 3.087A5.96 5.96 0 0121.5 27.5a5.945 5.945 0 01-5.125-2.913A5.922 5.922 0 0115.5 21.5c0-3.313 2.688-6 6-6 3.313 0 6 2.688 6 6z" stroke="#62C1DF" stroke-width="2" stroke-miterlimit="10" stroke-linecap="round" stroke-linejoin="round"/><path d="M19.163 21.5l1.475 1.475 3.2-2.95" stroke="#62C1DF" stroke-width="2" stroke-linecap="round" stroke-linejoin="round"/><path d="M27.5 10.863a13.78 13.78 0 01-1.637 6.524A5.993 5.993 0 0021.5 15.5c-3.313 0-6 2.688-6 6a5.98 5.98 0 001.538 4c-.463.213-.888.387-1.263.512-.425.15-1.125.15-1.55 0C10.6 24.776 2.5 19.612 2.5 10.862 2.5 7 5.612 3.876 9.45 3.876c2.263 0 4.288 1.1 5.55 2.788a6.936 6.936 0 015.55-2.788c3.837 0 6.95 3.125 6.95 6.988z" stroke="#62C1DF" stroke-width="2" stroke-linecap="round" stroke-linejoin="round"/></svg>