<svg width="20" height="20" fill="none" xmlns="http://www.w3.org/2000/svg"><path d="M10 11.667a3.337 3.337 0 003.333-3.334A3.337 3.337 0 009.999 5a3.337 3.337 0 00-3.333 3.333 3.337 3.337 0 003.333 3.334zm0-5c.918 0 1.666.747 1.666 1.666 0 .92-.748 1.667-1.667 1.667s-1.666-.748-1.666-1.667.747-1.666 1.666-1.666z" fill="#3C91AB"/><path d="M9.517 18.178a.832.832 0 00.967 0c.253-.179 6.208-4.478 6.183-9.845a6.674 6.674 0 00-6.666-6.667c-3.676 0-6.667 2.991-6.667 6.663-.024 5.37 5.93 9.67 6.183 9.85zm.484-14.845c2.757 0 5 2.243 5 5.004.017 3.699-3.657 7.02-5 8.109-1.343-1.09-5.018-4.412-5-8.113 0-2.757 2.242-5 5-5z" fill="#3C91AB"/></svg>