<svg width="21" height="21" fill="none" xmlns="http://www.w3.org/2000/svg"><g clip-path="url(#clip0_431_1195)"><path d="M1.47 1.47C0 2.954 0 5.327 0 10.08v.84c0 4.746 0 7.119 1.47 8.61C2.954 21 5.327 21 10.08 21h.84c4.746 0 7.119 0 8.61-1.47C21 18.046 21 15.673 21 10.92v-.84c0-4.746 0-7.119-1.47-8.61C18.046 0 15.673 0 10.92 0h-.84C5.334 0 2.961 0 1.47 1.47zm2.072 4.921H5.95c.077 4.004 1.841 5.698 3.241 6.048V6.391h2.261v3.451c1.379-.147 2.835-1.722 3.325-3.458h2.254a6.669 6.669 0 01-3.066 4.361 6.906 6.906 0 013.591 4.382h-2.485c-.532-1.659-1.862-2.947-3.619-3.122v3.122h-.28c-4.788 0-7.518-3.276-7.63-8.736z" fill="#fff"/></g><defs><clipPath id="clip0_431_1195"><path fill="#fff" d="M0 0h21v21H0z"/></clipPath></defs></svg>