<svg width="21" height="21" fill="none" xmlns="http://www.w3.org/2000/svg"><g clip-path="url(#clip0_431_1190)"><path fill-rule="evenodd" clip-rule="evenodd" d="M10.5 0C4.7 0 0 4.7 0 10.5c0 1.985.551 3.843 1.51 5.426L.573 19.11a1.06 1.06 0 001.317 1.317l3.184-.937A10.455 10.455 0 0010.5 21C16.3 21 21 16.3 21 10.5S16.3 0 10.5 0zM8.125 12.876c2.124 2.123 4.152 2.404 4.868 2.43 1.088.04 2.149-.792 2.562-1.757a.73.73 0 00-.093-.738c-.575-.735-1.353-1.263-2.113-1.788a.746.746 0 00-1.022.166l-.63.96a.24.24 0 01-.32.08c-.428-.244-1.05-.66-1.498-1.107-.447-.448-.837-1.042-1.057-1.442a.238.238 0 01.07-.306l.97-.72a.748.748 0 00.127-.987c-.47-.689-1.019-1.564-1.814-2.145a.73.73 0 00-.718-.079c-.966.414-1.802 1.474-1.762 2.565.026.716.307 2.744 2.43 4.868z" fill="#fff"/></g><defs><clipPath id="clip0_431_1190"><path fill="#fff" d="M0 0h21v21H0z"/></clipPath></defs></svg>